# xmcd CD database file
#
# Track frame offsets:
#	150
#	26097
#	86726
#	107649
#	120383
#	137979
#	178933
#	247065
#	271935
#	307515
#	344138
#
# Disc length: 4784 seconds
#
# Revision: 0
# Processed by: cddbd v1.5.1PL0 Copyright (c) Steve Scherf et al.
# Submitted via: CDex 1.51
#
DISCID=9d12ae0b
DTITLE=Miles Davis - The Essential Miles Davis (selection)
DYEAR=1900
DGENRE=Jazz
TTITLE0=1953 Compulsion (Collector's Items)
TTITLE1=1954 Walkin' (Walkin')
TTITLE2=1957 New Rhumba (Miles Ahead)
TTITLE3=1957 Generique (Ascenseur Pour L'Echafaud)
TTITLE4=1960 The Pan Piper (Sketches Of Spain)
TTITLE5=1961 Someday My Prince Will Come (Someday My Prince Will Come)
TTITLE6=1964 My Funny Valentine (The Complete Concert 1964)
TTITLE7=1965 E.S.P (E.S.P.)
TTITLE8=1968 Nefertiti (Nefertiti)
TTITLE9=1969 Petits Machins (Little Stuff) (Filles De Kilimanjaro)
TTITLE10=1970 Little Church (Live-Evil)
EXTD=
EXTT0=
EXTT1=
EXTT2=
EXTT3=
EXTT4=
EXTT5=
EXTT6=
EXTT7=
EXTT8=
EXTT9=
EXTT10=
PLAYORDER=
